<mxfile host="app.diagrams.net" modified="2023-05-01T06:44:32.256Z" agent="Mozilla/5.0 (Windows NT 10.0; Win64; x64) AppleWebKit/537.36 (KHTML, like Gecko) Chrome/112.0.0.0 Safari/537.36" etag="DKixeIpCyJOAqnhrtQTM" version="21.2.3" type="github">
  <diagram id="PFTaVR9R77RU1zgIoD-t" name="Page-1">
    <mxGraphModel dx="1034" dy="1238" grid="0" gridSize="10" guides="1" tooltips="1" connect="1" arrows="1" fold="1" page="0" pageScale="1" pageWidth="827" pageHeight="1169" background="none" math="0" shadow="0">
      <root>
        <mxCell id="0" />
        <mxCell id="1" parent="0" />
        <mxCell id="eftF3Yvcaq25oSi6NERf-6" style="edgeStyle=orthogonalEdgeStyle;rounded=0;orthogonalLoop=1;jettySize=auto;html=1;exitX=0;exitY=0;exitDx=0;exitDy=0;entryX=1;entryY=0.75;entryDx=0;entryDy=0;" parent="1" source="eftF3Yvcaq25oSi6NERf-1" target="eftF3Yvcaq25oSi6NERf-3" edge="1">
          <mxGeometry relative="1" as="geometry" />
        </mxCell>
        <mxCell id="eftF3Yvcaq25oSi6NERf-15" style="edgeStyle=orthogonalEdgeStyle;rounded=0;orthogonalLoop=1;jettySize=auto;html=1;exitX=0;exitY=1;exitDx=0;exitDy=0;entryX=1;entryY=0.5;entryDx=0;entryDy=0;" parent="1" source="eftF3Yvcaq25oSi6NERf-1" target="eftF3Yvcaq25oSi6NERf-13" edge="1">
          <mxGeometry relative="1" as="geometry" />
        </mxCell>
        <mxCell id="eftF3Yvcaq25oSi6NERf-33" style="edgeStyle=orthogonalEdgeStyle;rounded=0;orthogonalLoop=1;jettySize=auto;html=1;exitX=0;exitY=1;exitDx=0;exitDy=0;entryX=0.5;entryY=0;entryDx=0;entryDy=0;" parent="1" source="eftF3Yvcaq25oSi6NERf-1" target="eftF3Yvcaq25oSi6NERf-23" edge="1">
          <mxGeometry relative="1" as="geometry" />
        </mxCell>
        <mxCell id="eftF3Yvcaq25oSi6NERf-34" style="edgeStyle=orthogonalEdgeStyle;rounded=0;orthogonalLoop=1;jettySize=auto;html=1;exitX=1;exitY=1;exitDx=0;exitDy=0;entryX=0.5;entryY=0;entryDx=0;entryDy=0;" parent="1" source="eftF3Yvcaq25oSi6NERf-1" target="eftF3Yvcaq25oSi6NERf-29" edge="1">
          <mxGeometry relative="1" as="geometry" />
        </mxCell>
        <mxCell id="eftF3Yvcaq25oSi6NERf-41" style="edgeStyle=orthogonalEdgeStyle;rounded=0;orthogonalLoop=1;jettySize=auto;html=1;exitX=0.5;exitY=0;exitDx=0;exitDy=0;entryX=0;entryY=0.75;entryDx=0;entryDy=0;" parent="1" source="eftF3Yvcaq25oSi6NERf-1" target="eftF3Yvcaq25oSi6NERf-35" edge="1">
          <mxGeometry relative="1" as="geometry" />
        </mxCell>
        <mxCell id="eftF3Yvcaq25oSi6NERf-1" value="" style="ellipse;whiteSpace=wrap;html=1;aspect=fixed;" parent="1" vertex="1">
          <mxGeometry x="360" y="-481" width="80" height="80" as="geometry" />
        </mxCell>
        <mxCell id="eftF3Yvcaq25oSi6NERf-2" value="管理员" style="text;html=1;strokeColor=none;fillColor=none;align=center;verticalAlign=middle;whiteSpace=wrap;rounded=0;" parent="1" vertex="1">
          <mxGeometry x="370" y="-456" width="60" height="30" as="geometry" />
        </mxCell>
        <mxCell id="eftF3Yvcaq25oSi6NERf-3" value="" style="rounded=0;whiteSpace=wrap;html=1;" parent="1" vertex="1">
          <mxGeometry x="100" y="-571" width="100" height="50" as="geometry" />
        </mxCell>
        <mxCell id="eftF3Yvcaq25oSi6NERf-5" value="查看所有讲师" style="text;html=1;strokeColor=none;fillColor=none;align=center;verticalAlign=middle;whiteSpace=wrap;rounded=0;" parent="1" vertex="1">
          <mxGeometry x="120" y="-561" width="60" height="30" as="geometry" />
        </mxCell>
        <mxCell id="eftF3Yvcaq25oSi6NERf-7" value="" style="shape=document;whiteSpace=wrap;html=1;boundedLbl=1;" parent="1" vertex="1">
          <mxGeometry x="100" y="-486" width="100" height="50" as="geometry" />
        </mxCell>
        <mxCell id="eftF3Yvcaq25oSi6NERf-8" value="讲师信息表" style="text;html=1;strokeColor=none;fillColor=none;align=center;verticalAlign=middle;whiteSpace=wrap;rounded=0;" parent="1" vertex="1">
          <mxGeometry x="120" y="-476" width="60" height="30" as="geometry" />
        </mxCell>
        <mxCell id="eftF3Yvcaq25oSi6NERf-22" value="" style="edgeStyle=orthogonalEdgeStyle;rounded=0;orthogonalLoop=1;jettySize=auto;html=1;" parent="1" source="eftF3Yvcaq25oSi6NERf-13" target="eftF3Yvcaq25oSi6NERf-8" edge="1">
          <mxGeometry relative="1" as="geometry" />
        </mxCell>
        <mxCell id="eftF3Yvcaq25oSi6NERf-46" style="edgeStyle=orthogonalEdgeStyle;rounded=0;orthogonalLoop=1;jettySize=auto;html=1;entryX=0;entryY=0.5;entryDx=0;entryDy=0;" parent="1" source="eftF3Yvcaq25oSi6NERf-13" target="eftF3Yvcaq25oSi6NERf-3" edge="1">
          <mxGeometry relative="1" as="geometry">
            <Array as="points">
              <mxPoint x="80" y="-381" />
              <mxPoint x="80" y="-546" />
            </Array>
          </mxGeometry>
        </mxCell>
        <mxCell id="eftF3Yvcaq25oSi6NERf-13" value="" style="rounded=0;whiteSpace=wrap;html=1;" parent="1" vertex="1">
          <mxGeometry x="100" y="-406" width="100" height="50" as="geometry" />
        </mxCell>
        <mxCell id="eftF3Yvcaq25oSi6NERf-14" value="添加讲师" style="text;html=1;strokeColor=none;fillColor=none;align=center;verticalAlign=middle;whiteSpace=wrap;rounded=0;" parent="1" vertex="1">
          <mxGeometry x="120" y="-396" width="60" height="30" as="geometry" />
        </mxCell>
        <mxCell id="eftF3Yvcaq25oSi6NERf-21" value="" style="endArrow=classic;html=1;rounded=0;exitX=0.427;exitY=1.067;exitDx=0;exitDy=0;exitPerimeter=0;entryX=0.378;entryY=-0.1;entryDx=0;entryDy=0;entryPerimeter=0;" parent="1" source="eftF3Yvcaq25oSi6NERf-3" target="eftF3Yvcaq25oSi6NERf-8" edge="1">
          <mxGeometry width="50" height="50" relative="1" as="geometry">
            <mxPoint x="380" y="-331" as="sourcePoint" />
            <mxPoint x="430" y="-381" as="targetPoint" />
          </mxGeometry>
        </mxCell>
        <mxCell id="eftF3Yvcaq25oSi6NERf-23" value="" style="rounded=0;whiteSpace=wrap;html=1;" parent="1" vertex="1">
          <mxGeometry x="120" y="-321" width="90" height="50" as="geometry" />
        </mxCell>
        <mxCell id="eftF3Yvcaq25oSi6NERf-24" value="查看课程分类" style="text;html=1;strokeColor=none;fillColor=none;align=center;verticalAlign=middle;whiteSpace=wrap;rounded=0;" parent="1" vertex="1">
          <mxGeometry x="135" y="-311" width="60" height="30" as="geometry" />
        </mxCell>
        <mxCell id="eftF3Yvcaq25oSi6NERf-25" value="" style="shape=document;whiteSpace=wrap;html=1;boundedLbl=1;" parent="1" vertex="1">
          <mxGeometry x="250" y="-321" width="100" height="50" as="geometry" />
        </mxCell>
        <mxCell id="eftF3Yvcaq25oSi6NERf-26" value="课程科目表" style="text;html=1;strokeColor=none;fillColor=none;align=center;verticalAlign=middle;whiteSpace=wrap;rounded=0;" parent="1" vertex="1">
          <mxGeometry x="270" y="-311" width="60" height="30" as="geometry" />
        </mxCell>
        <mxCell id="eftF3Yvcaq25oSi6NERf-28" value="" style="endArrow=classic;html=1;rounded=0;exitX=1;exitY=0.5;exitDx=0;exitDy=0;" parent="1" source="eftF3Yvcaq25oSi6NERf-23" edge="1">
          <mxGeometry width="50" height="50" relative="1" as="geometry">
            <mxPoint x="210" y="-251" as="sourcePoint" />
            <mxPoint x="250" y="-296" as="targetPoint" />
          </mxGeometry>
        </mxCell>
        <mxCell id="eftF3Yvcaq25oSi6NERf-29" value="" style="rounded=0;whiteSpace=wrap;html=1;" parent="1" vertex="1">
          <mxGeometry x="400" y="-321" width="90" height="50" as="geometry" />
        </mxCell>
        <mxCell id="eftF3Yvcaq25oSi6NERf-45" style="edgeStyle=orthogonalEdgeStyle;rounded=0;orthogonalLoop=1;jettySize=auto;html=1;entryX=0.5;entryY=1;entryDx=0;entryDy=0;" parent="1" source="eftF3Yvcaq25oSi6NERf-30" target="eftF3Yvcaq25oSi6NERf-23" edge="1">
          <mxGeometry relative="1" as="geometry">
            <Array as="points">
              <mxPoint x="444" y="-251" />
              <mxPoint x="165" y="-251" />
            </Array>
          </mxGeometry>
        </mxCell>
        <mxCell id="eftF3Yvcaq25oSi6NERf-30" value="添加课程分类" style="text;html=1;strokeColor=none;fillColor=none;align=center;verticalAlign=middle;whiteSpace=wrap;rounded=0;" parent="1" vertex="1">
          <mxGeometry x="414" y="-311" width="60" height="30" as="geometry" />
        </mxCell>
        <mxCell id="eftF3Yvcaq25oSi6NERf-32" value="" style="endArrow=classic;html=1;rounded=0;entryX=1;entryY=0.5;entryDx=0;entryDy=0;exitX=0;exitY=0.5;exitDx=0;exitDy=0;" parent="1" source="eftF3Yvcaq25oSi6NERf-29" target="eftF3Yvcaq25oSi6NERf-25" edge="1">
          <mxGeometry width="50" height="50" relative="1" as="geometry">
            <mxPoint x="360" y="-261" as="sourcePoint" />
            <mxPoint x="400" y="-311" as="targetPoint" />
          </mxGeometry>
        </mxCell>
        <mxCell id="eftF3Yvcaq25oSi6NERf-35" value="" style="rounded=0;whiteSpace=wrap;html=1;" parent="1" vertex="1">
          <mxGeometry x="520" y="-631" width="90" height="50" as="geometry" />
        </mxCell>
        <mxCell id="eftF3Yvcaq25oSi6NERf-36" value="查看课程列表" style="text;html=1;strokeColor=none;fillColor=none;align=center;verticalAlign=middle;whiteSpace=wrap;rounded=0;" parent="1" vertex="1">
          <mxGeometry x="532.5" y="-621" width="60" height="30" as="geometry" />
        </mxCell>
        <mxCell id="eftF3Yvcaq25oSi6NERf-37" value="" style="shape=document;whiteSpace=wrap;html=1;boundedLbl=1;" parent="1" vertex="1">
          <mxGeometry x="530" y="-531" width="70" height="60" as="geometry" />
        </mxCell>
        <mxCell id="eftF3Yvcaq25oSi6NERf-38" value="课程信息表" style="text;html=1;strokeColor=none;fillColor=none;align=center;verticalAlign=middle;whiteSpace=wrap;rounded=0;" parent="1" vertex="1">
          <mxGeometry x="535" y="-516" width="55" height="25" as="geometry" />
        </mxCell>
        <mxCell id="eftF3Yvcaq25oSi6NERf-40" value="" style="endArrow=classic;html=1;rounded=0;exitX=0.415;exitY=1.04;exitDx=0;exitDy=0;exitPerimeter=0;entryX=0.381;entryY=0.011;entryDx=0;entryDy=0;entryPerimeter=0;" parent="1" source="eftF3Yvcaq25oSi6NERf-35" target="eftF3Yvcaq25oSi6NERf-37" edge="1">
          <mxGeometry width="50" height="50" relative="1" as="geometry">
            <mxPoint x="450" y="-491" as="sourcePoint" />
            <mxPoint x="500" y="-541" as="targetPoint" />
          </mxGeometry>
        </mxCell>
        <mxCell id="eftF3Yvcaq25oSi6NERf-42" value="添加成功" style="text;html=1;strokeColor=none;fillColor=none;align=center;verticalAlign=middle;whiteSpace=wrap;rounded=0;" parent="1" vertex="1">
          <mxGeometry x="350" y="-321" width="60" height="30" as="geometry" />
        </mxCell>
        <mxCell id="eftF3Yvcaq25oSi6NERf-50" value="" style="edgeStyle=orthogonalEdgeStyle;rounded=0;orthogonalLoop=1;jettySize=auto;html=1;" parent="1" source="eftF3Yvcaq25oSi6NERf-47" target="eftF3Yvcaq25oSi6NERf-49" edge="1">
          <mxGeometry relative="1" as="geometry" />
        </mxCell>
        <mxCell id="eftF3Yvcaq25oSi6NERf-47" value="发布课程" style="rounded=0;whiteSpace=wrap;html=1;" parent="1" vertex="1">
          <mxGeometry x="530" y="-441" width="77" height="45" as="geometry" />
        </mxCell>
        <mxCell id="eftF3Yvcaq25oSi6NERf-57" style="edgeStyle=orthogonalEdgeStyle;rounded=0;orthogonalLoop=1;jettySize=auto;html=1;entryX=1;entryY=0.5;entryDx=0;entryDy=0;" parent="1" source="eftF3Yvcaq25oSi6NERf-49" target="eftF3Yvcaq25oSi6NERf-37" edge="1">
          <mxGeometry relative="1" as="geometry">
            <Array as="points">
              <mxPoint x="680" y="-348" />
              <mxPoint x="680" y="-501" />
            </Array>
          </mxGeometry>
        </mxCell>
        <mxCell id="eftF3Yvcaq25oSi6NERf-49" value="添加课程基本信息" style="whiteSpace=wrap;html=1;rounded=0;" parent="1" vertex="1">
          <mxGeometry x="527.75" y="-366" width="81.5" height="35" as="geometry" />
        </mxCell>
        <mxCell id="eftF3Yvcaq25oSi6NERf-54" value="" style="edgeStyle=orthogonalEdgeStyle;rounded=0;orthogonalLoop=1;jettySize=auto;html=1;" parent="1" source="eftF3Yvcaq25oSi6NERf-51" target="eftF3Yvcaq25oSi6NERf-53" edge="1">
          <mxGeometry relative="1" as="geometry" />
        </mxCell>
        <mxCell id="eftF3Yvcaq25oSi6NERf-56" value="" style="edgeStyle=orthogonalEdgeStyle;rounded=0;orthogonalLoop=1;jettySize=auto;html=1;" parent="1" source="eftF3Yvcaq25oSi6NERf-51" target="eftF3Yvcaq25oSi6NERf-55" edge="1">
          <mxGeometry relative="1" as="geometry" />
        </mxCell>
        <mxCell id="eftF3Yvcaq25oSi6NERf-51" value="添加章节小节" style="whiteSpace=wrap;html=1;" parent="1" vertex="1">
          <mxGeometry x="527.75" y="-301" width="82.25" height="30" as="geometry" />
        </mxCell>
        <mxCell id="eftF3Yvcaq25oSi6NERf-53" value="章节小节信息表" style="shape=document;whiteSpace=wrap;html=1;boundedLbl=1;" parent="1" vertex="1">
          <mxGeometry x="640" y="-306" width="80" height="40" as="geometry" />
        </mxCell>
        <mxCell id="eftF3Yvcaq25oSi6NERf-59" style="edgeStyle=orthogonalEdgeStyle;rounded=0;orthogonalLoop=1;jettySize=auto;html=1;entryX=0;entryY=0.5;entryDx=0;entryDy=0;" parent="1" source="eftF3Yvcaq25oSi6NERf-55" target="eftF3Yvcaq25oSi6NERf-35" edge="1">
          <mxGeometry relative="1" as="geometry">
            <Array as="points">
              <mxPoint x="500" y="-226" />
              <mxPoint x="500" y="-606" />
            </Array>
          </mxGeometry>
        </mxCell>
        <mxCell id="eftF3Yvcaq25oSi6NERf-55" value="最终发布" style="whiteSpace=wrap;html=1;" parent="1" vertex="1">
          <mxGeometry x="528.5" y="-241" width="80" height="30" as="geometry" />
        </mxCell>
        <mxCell id="eftF3Yvcaq25oSi6NERf-58" value="添加成功" style="text;html=1;align=center;verticalAlign=middle;resizable=0;points=[];autosize=1;strokeColor=none;fillColor=none;" parent="1" vertex="1">
          <mxGeometry x="630" y="-386" width="60" height="20" as="geometry" />
        </mxCell>
        <mxCell id="TgjRXRTITHaoMna3Si7o-6" value="" style="edgeStyle=orthogonalEdgeStyle;rounded=0;orthogonalLoop=1;jettySize=auto;html=1;" edge="1" parent="1" source="TgjRXRTITHaoMna3Si7o-2" target="TgjRXRTITHaoMna3Si7o-5">
          <mxGeometry relative="1" as="geometry" />
        </mxCell>
        <mxCell id="TgjRXRTITHaoMna3Si7o-17" style="edgeStyle=orthogonalEdgeStyle;rounded=0;orthogonalLoop=1;jettySize=auto;html=1;entryX=0.5;entryY=0;entryDx=0;entryDy=0;" edge="1" parent="1" source="TgjRXRTITHaoMna3Si7o-2" target="TgjRXRTITHaoMna3Si7o-16">
          <mxGeometry relative="1" as="geometry" />
        </mxCell>
        <mxCell id="TgjRXRTITHaoMna3Si7o-24" value="" style="edgeStyle=orthogonalEdgeStyle;rounded=0;orthogonalLoop=1;jettySize=auto;html=1;" edge="1" parent="1" source="TgjRXRTITHaoMna3Si7o-2" target="TgjRXRTITHaoMna3Si7o-23">
          <mxGeometry relative="1" as="geometry" />
        </mxCell>
        <mxCell id="TgjRXRTITHaoMna3Si7o-2" value="用户" style="rounded=1;whiteSpace=wrap;html=1;" vertex="1" parent="1">
          <mxGeometry x="177" y="814" width="71" height="37" as="geometry" />
        </mxCell>
        <mxCell id="TgjRXRTITHaoMna3Si7o-9" value="" style="edgeStyle=orthogonalEdgeStyle;rounded=0;orthogonalLoop=1;jettySize=auto;html=1;" edge="1" parent="1" source="TgjRXRTITHaoMna3Si7o-5" target="TgjRXRTITHaoMna3Si7o-8">
          <mxGeometry relative="1" as="geometry" />
        </mxCell>
        <mxCell id="TgjRXRTITHaoMna3Si7o-5" value="注册表单" style="shape=document;whiteSpace=wrap;html=1;boundedLbl=1;rounded=1;" vertex="1" parent="1">
          <mxGeometry x="127" y="903.75" width="64.5" height="42.5" as="geometry" />
        </mxCell>
        <mxCell id="TgjRXRTITHaoMna3Si7o-8" value="社团系统" style="ellipse;whiteSpace=wrap;html=1;" vertex="1" parent="1">
          <mxGeometry x="180" y="985" width="65" height="57" as="geometry" />
        </mxCell>
        <mxCell id="TgjRXRTITHaoMna3Si7o-12" value="联系方式已被注册过" style="shape=document;whiteSpace=wrap;html=1;boundedLbl=1;" vertex="1" parent="1">
          <mxGeometry x="24" y="900" width="80" height="50" as="geometry" />
        </mxCell>
        <mxCell id="TgjRXRTITHaoMna3Si7o-13" value="" style="endArrow=classic;html=1;rounded=0;exitX=0.072;exitY=0.275;exitDx=0;exitDy=0;exitPerimeter=0;entryX=1;entryY=0.75;entryDx=0;entryDy=0;" edge="1" parent="1" source="TgjRXRTITHaoMna3Si7o-8" target="TgjRXRTITHaoMna3Si7o-12">
          <mxGeometry width="50" height="50" relative="1" as="geometry">
            <mxPoint x="57" y="1010" as="sourcePoint" />
            <mxPoint x="107" y="960" as="targetPoint" />
          </mxGeometry>
        </mxCell>
        <mxCell id="TgjRXRTITHaoMna3Si7o-15" value="" style="endArrow=classic;html=1;rounded=0;exitX=0.75;exitY=0;exitDx=0;exitDy=0;" edge="1" parent="1" source="TgjRXRTITHaoMna3Si7o-12">
          <mxGeometry width="50" height="50" relative="1" as="geometry">
            <mxPoint x="126" y="894" as="sourcePoint" />
            <mxPoint x="176" y="844" as="targetPoint" />
          </mxGeometry>
        </mxCell>
        <mxCell id="TgjRXRTITHaoMna3Si7o-18" style="edgeStyle=orthogonalEdgeStyle;rounded=0;orthogonalLoop=1;jettySize=auto;html=1;entryX=0.5;entryY=0;entryDx=0;entryDy=0;" edge="1" parent="1" source="TgjRXRTITHaoMna3Si7o-16" target="TgjRXRTITHaoMna3Si7o-8">
          <mxGeometry relative="1" as="geometry" />
        </mxCell>
        <mxCell id="TgjRXRTITHaoMna3Si7o-16" value="登录表单" style="shape=document;whiteSpace=wrap;html=1;boundedLbl=1;rounded=1;" vertex="1" parent="1">
          <mxGeometry x="228" y="904" width="64.5" height="42.5" as="geometry" />
        </mxCell>
        <mxCell id="TgjRXRTITHaoMna3Si7o-20" value="联系方式或密码错误" style="shape=document;whiteSpace=wrap;html=1;boundedLbl=1;rounded=1;" vertex="1" parent="1">
          <mxGeometry x="310" y="902" width="64.5" height="46.5" as="geometry" />
        </mxCell>
        <mxCell id="TgjRXRTITHaoMna3Si7o-21" value="" style="endArrow=classic;html=1;rounded=0;exitX=0.964;exitY=0.357;exitDx=0;exitDy=0;exitPerimeter=0;entryX=0.016;entryY=0.953;entryDx=0;entryDy=0;entryPerimeter=0;" edge="1" parent="1" source="TgjRXRTITHaoMna3Si7o-8" target="TgjRXRTITHaoMna3Si7o-20">
          <mxGeometry width="50" height="50" relative="1" as="geometry">
            <mxPoint x="303" y="994" as="sourcePoint" />
            <mxPoint x="353" y="944" as="targetPoint" />
          </mxGeometry>
        </mxCell>
        <mxCell id="TgjRXRTITHaoMna3Si7o-22" value="" style="endArrow=classic;html=1;rounded=0;entryX=1;entryY=0.75;entryDx=0;entryDy=0;exitX=-0.005;exitY=-0.022;exitDx=0;exitDy=0;exitPerimeter=0;" edge="1" parent="1" source="TgjRXRTITHaoMna3Si7o-20" target="TgjRXRTITHaoMna3Si7o-2">
          <mxGeometry width="50" height="50" relative="1" as="geometry">
            <mxPoint x="340" y="895" as="sourcePoint" />
            <mxPoint x="390" y="845" as="targetPoint" />
          </mxGeometry>
        </mxCell>
        <mxCell id="TgjRXRTITHaoMna3Si7o-28" style="edgeStyle=orthogonalEdgeStyle;rounded=0;orthogonalLoop=1;jettySize=auto;html=1;exitX=0.5;exitY=0;exitDx=0;exitDy=0;entryX=0.5;entryY=1;entryDx=0;entryDy=0;" edge="1" parent="1" source="TgjRXRTITHaoMna3Si7o-23" target="TgjRXRTITHaoMna3Si7o-27">
          <mxGeometry relative="1" as="geometry" />
        </mxCell>
        <mxCell id="TgjRXRTITHaoMna3Si7o-23" value="创建社团表单" style="shape=document;whiteSpace=wrap;html=1;boundedLbl=1;rounded=1;" vertex="1" parent="1">
          <mxGeometry x="171.5" y="696" width="80.5" height="45.5" as="geometry" />
        </mxCell>
        <mxCell id="TgjRXRTITHaoMna3Si7o-26" style="edgeStyle=orthogonalEdgeStyle;rounded=0;orthogonalLoop=1;jettySize=auto;html=1;exitX=1;exitY=0.5;exitDx=0;exitDy=0;" edge="1" parent="1">
          <mxGeometry relative="1" as="geometry">
            <mxPoint x="178.00003051757812" y="1018" as="targetPoint" />
            <mxPoint x="95" y="1017.5" as="sourcePoint" />
          </mxGeometry>
        </mxCell>
        <mxCell id="TgjRXRTITHaoMna3Si7o-25" value="用户列表" style="shape=document;whiteSpace=wrap;html=1;boundedLbl=1;" vertex="1" parent="1">
          <mxGeometry x="24" y="997" width="71" height="43" as="geometry" />
        </mxCell>
        <mxCell id="TgjRXRTITHaoMna3Si7o-27" value="超级管理员" style="ellipse;whiteSpace=wrap;html=1;" vertex="1" parent="1">
          <mxGeometry x="178.5" y="580" width="66.5" height="66" as="geometry" />
        </mxCell>
        <mxCell id="TgjRXRTITHaoMna3Si7o-31" value="" style="edgeStyle=orthogonalEdgeStyle;rounded=0;orthogonalLoop=1;jettySize=auto;html=1;" edge="1" parent="1" source="TgjRXRTITHaoMna3Si7o-29" target="TgjRXRTITHaoMna3Si7o-27">
          <mxGeometry relative="1" as="geometry" />
        </mxCell>
        <mxCell id="TgjRXRTITHaoMna3Si7o-29" value="社团列表" style="shape=document;whiteSpace=wrap;html=1;boundedLbl=1;" vertex="1" parent="1">
          <mxGeometry x="175" y="484" width="73" height="43" as="geometry" />
        </mxCell>
      </root>
    </mxGraphModel>
  </diagram>
</mxfile>
